<?xml version="1.0" encoding="utf-8"?>
<!-- Generator: Adobe Illustrator 22.0.1, SVG Export Plug-In . SVG Version: 6.00 Build 0)  -->
<svg version="1.1"
	 id="Layer_1" xmlns:cc="http://creativecommons.org/ns#" xmlns:dc="http://purl.org/dc/elements/1.1/" xmlns:inkscape="http://www.inkscape.org/namespaces/inkscape" xmlns:rdf="http://www.w3.org/1999/02/22-rdf-syntax-ns#" xmlns:sodipodi="http://sodipodi.sourceforge.net/DTD/sodipodi-0.dtd" xmlns:svg="http://www.w3.org/2000/svg"
	 xmlns="http://www.w3.org/2000/svg" xmlns:xlink="http://www.w3.org/1999/xlink" x="0px" y="0px" viewBox="0 0 100 105"
	 style="enable-background:new 0 0 100 105;" xml:space="preserve">
<style type="text/css">
	.st0{fill:none;stroke:#000000;stroke-width:1.5;stroke-miterlimit:5;}
</style>
<defs>
	<style>
		.st0{
	stroke-dasharray: 800;
	stroke-dashoffset:0;
	animation: dash 2s linear forwards;
	
}
@keyframes dash{
	from{
		stroke-dashoffset:800;

	}
	to{
		stroke-dashoffset:0;
	}
}
	</style>
</defs>

<g>
<path class="st0" d="M50,13c-3.3,0-6,2.7-6,6c0,3,2.2,5.4,5,5.9v13.5l-18.4,9.2c-0.3,0.2-0.6,0.5-0.6,0.9v22.3l-11.9,7
	C17,76.1,15.1,75,13,75c-3.3,0-6,2.7-6,6s2.7,6,6,6s6-2.7,6-6c0-0.4-0.1-0.9-0.2-1.3l12.1-7.1l18.5,11.2c0.3,0.2,0.7,0.2,1.1,0
	l18.5-11.2l12.1,7.1C81.1,80.1,81,80.6,81,81c0,3.3,2.7,6,6,6s6-2.7,6-6s-2.7-6-6-6c-2.1,0-4,1.1-5.1,2.8l-11.9-7V48.5
	c0-0.4-0.2-0.7-0.6-0.9l-13-6.5c-0.5-0.2-1.1,0-1.3,0.5s0,1.1,0.5,1.3l11.2,5.6L50,57.8l-16.8-9.3l17.2-8.6c0.3-0.2,0.6-0.5,0.6-0.9
	V24.9c2.8-0.5,5-2.9,5-5.9C56,15.7,53.3,13,50,13z M50,15c2.2,0,4,1.8,4,4s-1.8,4-4,4s-4-1.8-4-4S47.8,15,50,15z M32,50.2l17,9.4
	v21.7L32,70.9V50.2z M68,50.2v20.8L51,81.3V59.6L68,50.2z M13,77c2.2,0,4,1.8,4,4s-1.8,4-4,4s-4-1.8-4-4S10.8,77,13,77z M87,77
	c2.2,0,4,1.8,4,4s-1.8,4-4,4s-4-1.8-4-4S84.8,77,87,77z"/>
</g>
</svg>
