<?xml version="1.0" encoding="utf-8"?>
<!-- Generator: Adobe Illustrator 22.0.1, SVG Export Plug-In . SVG Version: 6.00 Build 0)  -->
<svg version="1.1" id="Layer_1" xmlns="http://www.w3.org/2000/svg" xmlns:xlink="http://www.w3.org/1999/xlink" x="0px" y="0px"
	 viewBox="0 0 470.3 48.7" style="enable-background:new 0 0 470.3 48.7;" xml:space="preserve">
<style type="text/css">
	.st0{fill:none;}
	.st1{fill:none;stroke:#646464;stroke-width:1;stroke-miterlimit:5;}
</style>

	<style>
		path{
		stroke:#fff;
		fill:#fff;
		stroke-dasharray:800;
		opacity:10;
		animation: animate 3s cubic-bezier(0,0.23,1,.1)
		}

		@keyframes animate{
			0%{
				opacity:0.2;
				fill:none;
				stroke-dashoffset:800;
			}
			30%{
				opacity:0.5;
				fill:none;
				stroke-dashoffset:800;
			}
			70%{
			<!-- fill:#fff; -->

			}
			100%{ 
				opacity:1;
				stroke-dashoffset:0;
			}
		}
	</style>

<g>
	<rect x="-136.2" y="-80" class="st0" width="660.6" height="209.9"/>
</g>
<g>
	<path class="st1" d="M12.8,33.3L9.3,43.9H4.8l11.5-33.7h5.3L33,43.9h-4.7l-3.6-10.6H12.8z M23.9,29.9l-3.3-9.7
		c-0.8-2.2-1.3-4.2-1.8-6.2h-0.1c-0.5,2-1,4.1-1.7,6.1l-3.3,9.8H23.9z"/>
	<path class="st1" d="M37.4,38.6c2,1.2,4.8,2.2,7.8,2.2c4.5,0,7-2.4,7-5.8c0-3.2-1.8-5-6.3-6.7c-5.5-2-8.9-4.8-8.9-9.6
		c0-5.3,4.4-9.2,10.9-9.2c3.5,0,6,0.8,7.5,1.6l-1.2,3.6c-1.1-0.6-3.4-1.6-6.4-1.6c-4.6,0-6.4,2.8-6.4,5.1c0,3.2,2.1,4.7,6.7,6.5
		c5.7,2.2,8.6,5,8.6,9.9c0,5.2-3.8,9.7-11.8,9.7c-3.3,0-6.8-1-8.6-2.1L37.4,38.6z"/>
	<path class="st1" d="M73.2,10.6c2.1-0.3,4.9-0.6,8.4-0.6c4.3,0,7.5,1,9.5,2.8c1.8,1.6,3,4.1,3,7.1c0,3.1-0.9,5.5-2.6,7.2
		c-2.3,2.5-6,3.7-10.3,3.7c-1.3,0-2.5-0.1-3.5-0.3v13.5h-4.4V10.6z M77.6,26.9c1,0.3,2.2,0.4,3.6,0.4c5.3,0,8.5-2.5,8.5-7.2
		c0-4.5-3.2-6.6-8-6.6c-1.9,0-3.4,0.1-4.1,0.4V26.9z"/>
	<path class="st1" d="M99.8,10.2h4.4v30.1h14.4v3.7H99.8V10.2z"/>
	<path class="st1" d="M128.9,33.3l-3.5,10.6h-4.5l11.5-33.7h5.3l11.5,33.7h-4.7l-3.6-10.6H128.9z M139.9,29.9l-3.3-9.7
		c-0.8-2.2-1.3-4.2-1.8-6.2h-0.1c-0.5,2-1.1,4.1-1.7,6.1l-3.3,9.8H139.9z"/>
	<path class="st1" d="M154,43.9V10.2h4.8l10.8,17.1c2.5,4,4.5,7.5,6,11l0.1-0.1c-0.4-4.5-0.5-8.6-0.5-13.9V10.2h4.1v33.7h-4.4
		l-10.7-17.1c-2.4-3.8-4.6-7.6-6.3-11.3l-0.1,0c0.3,4.3,0.3,8.3,0.3,13.9v14.4H154z"/>
	<path class="st1" d="M201.9,10.2v33.7h-4.4V10.2H201.9z"/>
	<path class="st1" d="M209.5,43.9V10.2h4.8L225,27.3c2.5,4,4.5,7.5,6,11l0.1-0.1c-0.4-4.5-0.5-8.6-0.5-13.9V10.2h4.1v33.7h-4.4
		l-10.7-17.1c-2.4-3.8-4.6-7.6-6.3-11.3l-0.1,0c0.3,4.3,0.3,8.3,0.3,13.9v14.4H209.5z"/>
	<path class="st1" d="M240.1,41.4L258.8,14v-0.1h-17.1v-3.7h22.8v2.7l-18.6,27.3v0.1h18.9v3.7h-24.6V41.4z M251.2,8.4L246,2.7h3.7
		l3.2,3.5h0.1l3.2-3.5h3.5l-5.2,5.7H251.2z"/>
	<path class="st1" d="M287.5,28.1h-13.1v12.2H289v3.7h-19V10.2h18.2v3.7h-13.9v10.7h13.1V28.1z"/>
	<path class="st1" d="M294.6,43.9V10.2h4.8l10.8,17.1c2.5,4,4.5,7.5,6,11l0.1-0.1c-0.4-4.5-0.5-8.6-0.5-13.9V10.2h4.1v33.7h-4.4
		l-10.7-17.1c-2.4-3.8-4.6-7.6-6.3-11.3l-0.1,0c0.3,4.3,0.3,8.3,0.3,13.9v14.4H294.6z"/>
	<path class="st1" d="M334.4,10.2h4.4v22.6c0,9-4.4,11.7-10.2,11.7c-1.6,0-3.6-0.3-4.7-0.8l0.6-3.6c0.9,0.4,2.2,0.6,3.7,0.6
		c3.9,0,6.2-1.8,6.2-8.4V10.2z"/>
	<path class="st1" d="M363.5,28.1h-13.1v12.2H365v3.7h-19V10.2h18.2v3.7h-13.9v10.7h13.1V28.1z"/>
	<path class="st1" d="M370.6,10.7c2.2-0.5,5.4-0.7,8.4-0.7c4.7,0,7.7,0.9,9.8,2.8c1.7,1.5,2.7,3.8,2.7,6.4c0,4.5-2.8,7.4-6.4,8.6
		v0.2c2.6,0.9,4.2,3.3,5,6.8c1.1,4.7,1.9,8,2.6,9.3h-4.5c-0.5-1-1.3-3.9-2.3-8.1c-1-4.7-2.8-6.4-6.8-6.6H375v14.6h-4.4V10.7z
		 M375,26h4.5c4.7,0,7.6-2.6,7.6-6.4c0-4.4-3.2-6.3-7.8-6.3c-2.1,0-3.6,0.2-4.3,0.4V26z"/>
	<path class="st1" d="M401.9,10.2v33.7h-4.4V10.2H401.9z"/>
	<path class="st1" d="M409.5,43.9V10.2h4.8L425,27.3c2.5,4,4.5,7.5,6,11l0.1-0.1c-0.4-4.5-0.5-8.6-0.5-13.9V10.2h4.1v33.7h-4.4
		l-10.7-17.1c-2.4-3.8-4.6-7.6-6.3-11.3l-0.1,0c0.3,4.3,0.3,8.3,0.3,13.9v14.4H409.5z"/>
	<path class="st1" d="M468,42.4c-2,0.7-5.8,1.9-10.4,1.9c-5.1,0-9.3-1.3-12.6-4.5c-2.9-2.8-4.7-7.3-4.7-12.6
		c0.1-10.1,7-17.4,18.3-17.4c3.9,0,7,0.9,8.4,1.6L466,15c-1.8-0.8-4-1.5-7.5-1.5c-8.2,0-13.6,5.1-13.6,13.6c0,8.6,5.2,13.6,13,13.6
		c2.8,0,4.8-0.4,5.8-0.9V29.7h-6.8v-3.5H468V42.4z"/>
</g>

</svg>
