<?xml version="1.0" encoding="utf-8"?>
<!-- Generator: Adobe Illustrator 22.0.1, SVG Export Plug-In . SVG Version: 6.00 Build 0)  -->
<svg version="1.1" id="Layer_1" xmlns="http://www.w3.org/2000/svg" xmlns:xlink="http://www.w3.org/1999/xlink" x="0px" y="0px"
	 viewBox="0 0 100 104" style="enable-background:new 0 0 100 104;" xml:space="preserve">
<g>
	<g>
		<g>
			<g>
				<g>
					<path d="M88.6,49.7c0,0.4,0.4,0.2,0.5,0.3C88.9,49.4,88.5,49.7,88.6,49.7z"/>
					<polygon points="87.1,44 87.3,44.1 86.8,43.3 					"/>
					<path d="M85.9,38.7c-0.5,0.7,0.6,1.9,0.6,2.9l-0.1,0.2l0.7,0.3C86.7,40.9,86,39.6,85.9,38.7z"/>
					<path d="M86.4,35.5c-0.2,0.3-0.4-0.5,0.2,0.7c0-0.1,0-0.1,0-0.1C86.5,35.9,86.5,35.7,86.4,35.5z"/>
					<path d="M86.6,36C86.8,36.6,86.7,35.6,86.6,36L86.6,36z"/>
					<path d="M85.4,33.6l0.6,0.6c0.1-0.2-0.2-0.9,0-0.7C85.5,32.8,85.4,33,85.4,33.6z"/>
					<path d="M84.6,33.1l0.3,0.3C84.9,33.3,84.8,33.2,84.6,33.1z"/>
					<path d="M85.4,34.1l-0.6-0.7c-0.1,0.2-0.3,0.3,0.2,0.3C84.9,33.8,85.1,33.8,85.4,34.1z"/>
					<path d="M85.5,34.6c0.1,0.4,0.1,1-0.4,0.4C85.8,36.3,86.2,35.9,85.5,34.6z"/>
					<path d="M85.1,38.7c0,0,0,0.1,0,0.3c0,0.1,0,0.3,0,0.3l0.3,0.4C85.3,39.5,85.4,38.6,85.1,38.7z"/>
					<path d="M83.4,29.1c-0.2,0-0.2,0.4-0.3,0.6l0.4,0.4C83.4,29.8,83.2,29.3,83.4,29.1z"/>
					<path d="M83,29.7l-0.7-0.6C82.7,29.8,82.9,29.8,83,29.7z"/>
					<polygon points="83.8,33.4 84.9,34.4 83.7,33.1 					"/>
					<polygon points="81.5,26.4 82.1,26.6 81.1,26.2 					"/>
					<path d="M80.1,24.7c0.5,0.1,0-0.7,0.4-0.5c-0.4-0.4-1-0.6-1.5-0.8C79.5,23.6,79.9,24.1,80.1,24.7z"/>
					<path d="M78.4,23c0.2,0.1,0.5,0.2,0.8,0.3C78.9,23.2,78.7,23.1,78.4,23z"/>
					<path d="M81.6,27.9c0-0.1,0.2-0.3,0-0.8l-0.1,0.5C81.5,27.7,81.6,27.8,81.6,27.9z"/>
					<path d="M81.4,27.6L81.4,27.6c-0.2-0.3-0.3-0.5-0.4-0.6C81.1,27.1,81.2,27.3,81.4,27.6z"/>
					<path d="M81.7,28C81.7,27.9,81.6,27.9,81.7,28C81.6,27.9,81.6,28,81.7,28z"/>
					<path d="M83.1,31.2c-0.5-0.3-1.2-1-1,0C82.6,31.4,82.4,30.8,83.1,31.2z"/>
					<path d="M81.5,28.6c0,0,0.4,0.8,0.4,0.8c0.1-0.1,0.1-0.3,0.4-0.2C82.2,29.2,81.5,28.6,81.5,28.6z"/>
					<polygon points="81.1,28.3 81.5,28.6 81.3,28.3 					"/>
					<path d="M79.1,24.4c-0.4-0.2-0.7-0.5-1-0.8c0.3,0.4,0.6,0.9,0.9,1.2C79.2,24.8,79.5,24.8,79.1,24.4z"/>
					<path d="M80.3,26C80.2,26,80.2,26,80.3,26C80.2,26,80.2,26,80.3,26z"/>
					<polygon points="74.7,20.4 74.7,20.5 74.7,20.5 					"/>
					<path d="M79,25c0.2,0.3,0.4,0.4,0.7,0.5c-0.2-0.2-0.5-0.4-0.7-0.6C78.9,24.9,78.9,24.9,79,25z"/>
					<path d="M77.3,22.2c0.1,0.2,0.2,0.4,0.3,0.6C77.6,22.6,77.4,22.2,77.3,22.2z"/>
					<path d="M80.2,25.8L80.2,25.8C80.2,25.6,80.2,25.7,80.2,25.8z"/>
					<path d="M80.2,25.8c-0.2-0.1-0.3-0.2-0.5-0.2c0.2,0.2,0.3,0.3,0.5,0.4C80.2,25.9,80.2,25.8,80.2,25.8z"/>
					<path d="M71.8,21.7c0.3-0.3,1.3,0,1.6,0.9c0.8,0.3,1.3-1,1.2-2.1c-0.1,0.1-0.2,0.2-1.1-0.1c0.1,0.3,1.1,1.6,0.4,1.4
						c-1-0.6-0.6-0.7-0.9-1.2c0.1,0.7-1.6-0.3-1.8,0.4l0.9,0.4C72.1,21.5,71.7,21.4,71.8,21.7z"/>
					<path d="M75.9,21.7l0.3,0.2c-0.3-0.3-0.4-0.6-0.6-1.3c-0.6-0.3-0.8-0.2-0.9-0.2l1.3,1.2L75.9,21.7z"/>
					<path d="M77.4,23c-0.5,0.1-1.3-0.3-1.2,0.3c0.8,0.7,0.8,0.3,1.3,0.6C76.3,22.7,78,24.1,77.4,23c0.3,0.2,0.5,0.5,0.7,0.7
						c-0.2-0.3-0.3-0.5-0.5-0.8c0,0,0,0,0,0l0,0l0,0c0,0.1,0,0.1,0,0.1c0,0,0,0,0,0C77.5,23,77.4,23,77.4,23c-0.3-0.4,0-0.1,0.2-0.1
						c0,0,0,0,0.1,0l0,0c0,0-1.4-1-1.4-1C76.4,22.2,76.8,22.4,77.4,23z"/>
					<path d="M80.9,31C80.9,30.9,80.9,30.9,80.9,31C80.8,30.8,80.8,30.8,80.9,31z"/>
					<path d="M80.7,30.2c0.1,0.1,0.3,0.1,0.5,0.4c0.1,0.4-0.2,0.1-0.3,0.2c0.2,0.1,0.7,0.5,0.5-0.2l-0.1-0.1
						c-0.2-0.6-0.2-1.7-0.1-1.6C81,29.4,80.8,29.7,80.7,30.2z"/>
					<path d="M79.2,26.6c0,0-0.2-0.3-0.5-0.5c-0.3-0.2-0.5-0.4-0.5-0.4l0.2,0.8l0.1-0.2C78.9,26.9,79,26.6,79.2,26.6z"/>
					<path d="M74.7,20.1l0.4-0.2c0,0-1.1,0-1.1,0L74.7,20.1z"/>
					<polygon points="73.1,19 73.4,18.7 72.9,18.6 					"/>
					<path d="M21,67.2l0.3,0.3C21.1,67.3,21,67.2,21,67.2z"/>
					<path d="M19.7,64.8l-0.2,0C19.6,64.9,19.7,64.9,19.7,64.8z"/>
					<path d="M29.7,17.2c-0.7,0-1.6-0.1-1.3,0.2l0.4,0.3C29.1,17.4,29.4,17.2,29.7,17.2z"/>
					<path d="M14.6,42.9c0.1,0,0.1-0.1,0.2-0.1c-0.1-0.2-0.2-0.3-0.3-0.5C14.5,42.5,14.6,42.7,14.6,42.9z"/>
					<path d="M16.3,43.6L16,44.3C16.1,44.2,16.2,43.9,16.3,43.6z"/>
					<path d="M31.2,77.5c0,0,0.1,0,0.3-0.1c0.2,0,0.3-0.1,0.3-0.1C31.2,77,31.3,77.3,31.2,77.5z"/>
					<path d="M55.5,11.9c-0.5-0.2-0.9-0.4-1.3-0.5C54.8,11.8,55.3,12.2,55.5,11.9z"/>
					<path d="M16.4,68.5c0.2,0.2,0.3,0.2,0.4,0.2C16.6,68.5,16.4,68.4,16.4,68.5z"/>
					<path d="M52.6,11.3c0.1,0,0.2,0.1,0.3,0.1c0.4,0,0.8-0.1,1.3,0C53.7,11.2,53.2,11.1,52.6,11.3z"/>
					<path d="M77.9,68.8c0,0,0.1-0.1,0.1-0.1C78,68.7,78,68.8,77.9,68.8z"/>
					<path d="M87.7,55.1c0,0.2,0,0.5-0.1,0.7C87.7,55.7,87.7,55.4,87.7,55.1z"/>
					<path d="M66.7,14.9C67.1,15.1,66.8,14.9,66.7,14.9L66.7,14.9z"/>
					<path d="M67.7,17.3c-0.1,0-0.2,0-0.2,0.1C67.5,17.3,67.6,17.3,67.7,17.3z"/>
					<path d="M48.8,14C48.7,14,48.7,14,48.8,14C48.8,14,48.8,14,48.8,14z"/>
					<path d="M67.2,15.4c-0.1-0.1-0.2-0.2-0.4-0.3C66.9,15.1,67,15.2,67.2,15.4z"/>
					<path d="M67.2,15.2c0.1,0.1,0.2,0.1,0.3,0.2C67.6,15.3,67.6,15.2,67.2,15.2z"/>
					<path d="M66.2,14.7c0.2,0.1,0.4,0.2,0.6,0.3c-0.1-0.1-0.1-0.1-0.1-0.1C66.6,14.9,66.5,14.8,66.2,14.7z"/>
					<path d="M54.6,84.5C54.6,84.5,54.6,84.5,54.6,84.5C55,84.3,54.8,84.4,54.6,84.5z"/>
					<path d="M25,26.8C25,26.8,25,26.8,25,26.8C25,26.8,25,26.8,25,26.8L25,26.8z"/>
					<path d="M24.4,27.9c0-0.7,0.2-0.9,0.6-1.2l-1.2-0.5c0,0,0.2,0.4,0.3,0.9C24.2,27.5,24.4,27.9,24.4,27.9z"/>
					<path d="M24.8,72.3l-0.3-0.9c1.2,0.4,1.5,1,1.4,0.1c-0.5,0.4-1.2-0.2-1.7-0.8s-1.1-1.3-1.6-0.9l-0.1-0.6
						c0.1,0.1,0.2,0.1,0.3,0.3c-0.1-1.3-1.3-0.1-1.9-1.5c-0.2-0.5-0.2-0.9,0.1-0.7l-0.9-0.8c-0.1-0.3,0.1-0.3,0.2,0
						c0,0-0.1-0.1-0.2-0.2c-0.1-0.1-0.2-0.3-0.3-0.5c-0.2-0.4-0.4-0.8-0.4-0.8l0,0c-0.3-0.1-0.8-0.5-1.1-0.7c0-0.5,0.2,0.1,0.3,0
						c0,0-0.7-0.7-0.7-0.7c0.1-0.3,0.3-0.2,0.5-0.1c0.2,0.2,0.4,0.5,0.6,0.8c0.4-0.7,0.3-0.8,0-1c-0.3-0.2-0.6-0.6-0.6-1.6l0.5,0.8
						c0.5-0.8,0-1.4,0.1-2.4C18.9,60,18.6,62,18,61.2c0-0.3-0.1-0.7-0.5-1.1c0.5-0.1,0.2-0.6,0-1.3l0.6-0.1c-0.4-0.7-0.7-0.5-1-0.9
						c-0.1-0.8,0.3-1.1,0.7-1.3c-0.1-1.3-0.6,1-1-0.5c0-0.6,0-1-0.2-1.5c-0.2-0.5-0.4-1-0.6-1.6c0.2-0.8,0.4,0.1,0.6-0.2L15.9,52
						c0-0.2,0.2-0.1,0.2-0.1c-0.2-0.6-0.6,0-0.9-0.9c-0.3-0.1-0.1-0.6,0.1-1.2c0.3-0.6,0.5-1.3,0.2-1.8c0.2-0.3,0.4,0.2,0.6,0.1
						c-0.4-1.6-0.3-1.3-0.8-2.7l0.6-1c-0.6,0.7-1-0.4-1.3-1.4c-0.3,0.2-0.5,0.5-0.6,0.6c0,0,0-0.4-0.1-0.8c0-0.4,0-0.8,0-0.8
						c0.1-0.2,0.3,0,0.5,0.3c0-0.1-0.1-0.2-0.1-0.3c0.4-0.5,0.7-0.1,0.9,0.3l-0.5,0.4c0.3,0.4,0.7,0.9,1.1,0.8
						c-0.1-0.1-0.1-0.3-0.1-0.5c0.1,0.1,0.2,0.2,0.2,0.2c0.1,0-0.1-0.2-0.1-0.5l0.8-0.2l-0.3-0.1l0.9-1.7c-0.1-0.4-0.2-0.7-0.3-1.1
						c-0.1-0.4-0.2-0.8-0.2-1.2c-0.1-0.8-0.2-1.8,0.1-2.8c0.2,0.7,0.7,0.4,1.3,0.7c-0.8,0.3-0.3,1.7-0.8,2.6
						c0.3-0.5,0.5-0.3,0.5-0.1l0.1-2c0.5,0.2,0.5-0.2,0.9-0.6c-1.1-0.1,0-1.6,0.1-2.5c0.3,0.1,0.5,0.4,0,1.3
						c1.1-0.6-0.5-1.8,0.7-2.4c-0.1,0.2-0.2,0.3-0.1,0.5c0-0.6,1-1.7,1-1.3L20.5,32c0.2-0.3,0.5-0.7,0.8-1.2
						c0.3-0.4,0.6-0.9,0.9-1.4c0.5-0.9,0.9-1.8,0.6-2.1c0.1,0.1,0.6,0.8,0.7,1c0,0,0-0.3-0.1-0.6c0-0.4-0.1-0.9-0.1-1.4
						c0-1-0.1-2.1-0.1-2.1c0.4,0.7,2.3,1.2,1.7,2.4c0.3-0.2,0.7-0.5,1.1-1.2c-0.3,0.1-1.2-0.3-1-0.6c1.3-0.1,0.8-0.2,2.2-0.4
						c-0.4,0.1-0.8-1-0.3-1.4c0,0.2,0.8,0.8,0.7,1.1c0,0,0.1-0.5,0.2-0.9c0.1-0.5,0.3-0.9,0.3-0.9c-0.2,0.4,0.5,0.8,1,0.8
						c-0.3-0.1,1-0.8,1.3-1.1l-0.7,0.2c1.4-0.9,0.5-2.3,2-3.2c-0.1,0.3,0.3,1.5,1.1,1.2c0-0.3,0-1.2,0.3-2.1
						c0.2-0.9,0.6-1.8,1.3-2.3l0.4,0.2c0,0,0.2-0.2,0.5-0.4c0.2-0.2,0.5-0.4,0.5-0.4c-0.2,0.5-0.6,1.5-1,2.4
						c-0.4,0.9-0.8,1.8-1.1,2.4c0.7-0.1,0.3,0.3,1.2-0.2c0.4,0.1-0.2,0.6-0.5,0.8l2-0.8c-0.2-0.3,0.1-0.6,0.4-0.9
						c0.3-0.3,0.7-0.6,0.5-0.8c0,0-0.1,0.1-0.3,0.2c-0.2,0.1-0.4,0.3-0.7,0.5c-0.5,0.4-0.9,0.8-0.9,0.8c-0.2-0.3-0.1-0.9,0.3-1.5
						c0.3-0.6,1-1.2,1.8-1.4c0.5,0.1,0.1,1.2,0.3,1.4c0.1-0.3,1.3-0.9,1.4-0.8L38.6,18c0.4,0,0.7-0.4,1-0.7c0.3-0.3,0.7-0.5,1.3-0.3
						c0.4,0,1.3,0.6,1.2,0.2c-0.7-0.6-1.5-2.9-1.2-3.5c0.1,0,0.6,0.1,1.2,0.1c0.6,0.1,1.2,0.3,1.5,0.4c0.7,0.5-0.7,1.6,0,2
						c0-0.2,0.3-0.5,0.4-0.6c0.4,0.1-0.1,0.6,0.7,0.4c0-0.7,1.7-0.2,0.3-0.6c0.8-0.3,0.9,0,1.8-0.1c-0.4-0.4,0.8-1.5,1.6-1.8
						c0,0.2,0.2,0.4,0.3,0.5c0.4,0,0.8,0,1.2,0c0.4,0,0.7,0.1,1,0.2c0.7,0.1,1.3,0.2,2.1,0.3c0.1,0.2,0.9,0.4,0.5,0.7
						c0.2-0.1,0.5-0.3,1-0.2c0.9,0.7-1.1-0.1-0.5,0.7c0.1-0.4,1.3-0.4,2-0.5c-0.1-0.6-1.6-0.4-2.3-0.2c0.1-0.8,1.4-1.5,3.2-1.6
						c1.4,0,0.5,0.7,0.7,0.6c1.2,0.4,1.9,0.2,2.4,0c0.6-0.2,1.1-0.3,2,0.4c0.6,0.8-0.3,1-0.3,1.5c-0.6-0.1-0.9-0.3-1.3-0.5
						c-0.3-0.2-0.6-0.4-1-0.5l0.8,0.5c-0.4,0.1-1.1,0-1.5-0.2c0.6,0.6,4.1,1.3,5.7,2.6c0.4,0,1,0.1,0.8-0.2L65.1,17
						c-0.3-0.6,1.3,0,0.7-0.6c0.4,0,0.9,0.1,1.5,0.2c0.3,0.1,0.5,0.1,0.8,0.2c0.2,0.1,0.5,0.3,0.7,0.5L68.6,18
						c0.1-0.2-0.5-0.7-0.9-0.7c0.6,0,1.2,1.7,2,1.3l-0.5-0.8c0.9,0.2,2.2,0.2,3,1c-0.1-0.8-0.2-0.1-0.5-1.1c0.1,1.1-2.4-1.5-2-0.2
						c-0.3-1.1-1-1.1-1.6-2.1c-0.1,0.2,0.2,0.5-0.6,0c-0.1,0-0.2,0.1-0.3,0.1c0,0,0,0-0.1,0l0,0c-0.1,0-0.1,0,0,0
						c0.2,0.2,0.3,0.3,0.3,0.5c-0.6,0.2-1.9-0.4-2.5-0.4c-0.4-0.3,0.3-0.1,0.1-0.4c0,0-0.2,0-0.4,0c-0.2,0-0.4,0-0.4,0
						c0.1-0.4-1.1-1.2,0.2-1l-1.1-0.4c-0.6-0.5-1.4-0.9-2.1-0.9c-0.5-0.2-1.5,0.1-0.9-0.1l-1.9-0.2l0-0.1c-0.9-0.3-1.8-0.2-2.8-0.3
						c-1,0-1.9-0.2-2.9-0.7c-0.6,0.1-1.3,0.2-2.3,0l-0.2-0.4c-0.8,0.1-2.4-0.3-2.7,0.1c-0.2-0.3-0.6-0.4-1-0.4
						c-0.4-0.1-0.9,0-1.4,0.1c-1,0.2-2.1,0.5-2.8,0.5l0,0.5c-0.9,0.1-1.8,0.6-2.9,1l0.2,0.4c-0.9,0.5-2.5,0.5-4,1.1
						c0-0.2,0.4-0.3,0.7-0.3c-0.5-0.1-1,0-1.5,0.2c-0.5,0.2-0.9,0.5-1.3,0.8c-0.8,0.6-1.6,1.2-2.5,1.4C31,16.9,30.7,17,30.4,17
						c0,0,0.1,0,0.1-0.1c0,0-0.1,0.1-0.2,0.1c-0.2,0-0.4,0.1-0.6,0.1c0.2,0,0.4,0,0.6-0.1c-0.3,0.2-0.7,0.5-1,0.8l-0.4-0.3
						c0,0-0.1,0-0.1,0.1c-0.5,0.1-0.2,0.4,0.2,0.6c-0.2,0.2-0.3,0.4-0.4,0.6c-0.8-0.4-0.9,1-1.8,0.6c0,0.3-0.5,0.7-0.9,1.2
						c-0.4,0.5-0.7,1-0.5,1.5c-0.1-0.1-0.2,0,0-0.2c-0.5,0.3-0.9,0.6-1.1,1.1l-0.6-0.3c0,0-0.1,0.3-0.1,0.7
						c-0.1,0.4-0.1,0.7-0.1,0.7c-0.7,0.3-1.1,0.3-1-0.5c-0.6,1.8-0.8,1.2-1.2,2.8l-0.3-0.3c-0.3,0.4-0.4,1.4-0.8,1.5
						c-1.4,0.4-3.3,4.7-5.1,7.2c0.7,0,0.4,0.2,0.1,0.6c-0.3,0.3-0.7,0.8-0.3,1c-0.3,0.1-0.6,0.4-0.7-0.1c-0.3,1.6-1.3,2.1-0.8,3.3
						c-0.3,0.1-0.3-0.4-0.5-0.3c0,0.1,0.1,0.5-0.1,0.7c-0.2,0.1-0.2-0.3-0.2-0.6c-0.4,1.6,0.4,1.9,1.2,2.2c-0.3,0.3-0.4,0.6-0.5,0.9
						c0,0.3,0.1,0.5,0.3,0.9c-0.3,0.2-0.6,0.6-0.6-0.3c-0.1,0.5-0.9,3.3-0.2,3.4c-0.2,0.2-0.1,0.8,0,0.9c-0.1,1.2-0.2,1.3-0.2,2.5
						l0.1-0.3c0.7,0.5,0.2,1,0.3,1.9l-0.1,0c-0.2,1.1-0.1,1.4-0.1,1.6c0.1,0.2,0.1,0.5-0.1,1.6l0.5-0.2c1.1,0.1-0.3,2,0.3,3.2
						l0.2-0.5c0.4,0.6-0.9,2.2-0.9,2.9c0,0.2-0.2-0.2-0.3-0.4c-0.1,2,0.7,0.1,1.2,1.4c-0.3,0.3-0.9-0.1-0.7,0.9
						c-0.1,0.3,0.4,0.8,0.9,1.5c0.5,0.7,0.9,1.4,0.9,2.1c0.1-0.4,0.2-0.7,0.7-0.2c0.5,0.8,0.2,2.9,1.4,3.2c0,0.1,0,0.2-0.1,0.3
						c0.6,0.5,1.6,1.9,2.2,2c-0.5,0.8,0.4,1.6,1.2,2.3c0.8,0.7,1.6,1.3,1,1.8l1.6,1.7l-0.2,0.1c1,1.1,1.6,1.2,2.3,1.3
						c0.2,0.3-0.1,0.2-0.2,0.3c1.4,1.7,1.7,1.7,3.5,2.2l-0.1,0.5c0.3,0,0.8,0.7,1.5,1.3c0.8,0.6,1.7,1.4,2.8,1.6
						c0,0-0.1,0.1-0.3,0.1c1.2,0.2,2.3,1.2,3.4,1.9c1.1,0.6,2.1,1,2.8,0.3c0,0,0.4,0,0.8,0c0.4,0,0.8,0,0.8,0
						c-1.9-0.6,0.5-0.7-0.2-1.2c0.8,0.1,1.8,1,0.8,0.9l-0.1-0.1c-0.6,0.8,2.3,1,2.1,1.5c3.9,0.7,7.8,1.3,11.6,1c0,0-0.1-0.2-0.3-0.3
						c-0.1-0.2-0.3-0.3-0.3-0.3c0,0,1.3-0.1,1.3-0.1c0.4,0.1,0.5,0.5-0.4,0.6c0.5,0.3,1.5-0.6,1.5-0.7c1.8,0-0.6,0.9,0,0.9l0.8-0.2
						l-0.2-0.1c0.6-0.4,0.6-0.6,1.6-0.9c0.7,0,0.5,0.3,0.7,0.3c0,0.1,0.1,0.1,0.4-0.1l1.6-0.4l-0.8-0.4c0.6-0.4,1.5-0.4,0.6-0.8
						c0.7,0.3,2.1-0.1,3.5-0.6c1.4-0.6,2.6-1.3,3-1.3c0.2-0.2,0.4-0.4,0.6-0.5c0.2-0.2,0.4-0.3,0.6-0.5c0.4-0.3,0.9-0.6,1.5-0.9
						c-0.3,0.1-0.8-0.4,0.1-0.9c0.2,0.7,0.7,0.6,1.3,0.3c0.6-0.3,1.2-0.7,1.9-0.6c-0.5,0,0.1-0.5,0.6-1c0.5-0.5,0.9-1,0.2-1
						c0.7-0.5,0.4,0.3,1.1,0.1c0.6-0.9,1.6-1.6,2.5-2.5c0.9-0.8,2-1.7,2.7-2.8c-0.1-0.1-0.6,0-0.5-0.6l1.5-0.6
						c0.2-0.5-0.5-0.9,0.5-1.4c-0.2,0-0.5,0.1-0.3-0.2c1.7-1.9,2.9-4.4,3.7-6.9c0.4-1.3,0.9-2.5,1.3-3.8c0.2-0.6,0.4-1.2,0.7-1.9
						c0.3-0.6,0.5-1.3,0.8-1.9c-0.4,0.7-0.4,0.2-0.3-0.4c-0.1,0.3-0.4-0.1-0.7,0c0,0,0.2-0.5,0.5-1c0.1-0.3,0.2-0.5,0.3-0.7
						c0.1-0.2,0.1-0.3,0.1-0.3c-0.6-0.5,0.1-2.4-0.5-2.6l0.1,0.7c-0.7-0.9-1.7,1.2-2.7,0.9c0.2,0.3,0.2,0.5,0.1,0.8
						c-0.1,0.3-0.3,0.6-0.5,0.9c-0.4,0.7-0.7,1.4-0.2,2.3c-0.2,0.3-0.3-0.3-0.5-0.2c0.4,0.5,0.3,1-0.1,1.8l-0.1-0.1
						c-0.3,1.2-0.5,2.1-1,2.9c-0.2,0.4-0.4,0.8-0.7,1.3c-0.3,0.5-0.5,1-0.9,1.6l0.5,0c-0.3,0.5-0.5,0.6-0.7,0.8
						c0.4,0.9,0.8-1.5,1.2-0.6c-0.6,0.2-1.1,1.1-1.5,2c-0.5,0.9-1.1,1.7-1.7,1.6c-0.5,0.8,0.6,0.1,0.1,0.8l-0.4,0l0.2,0.4
						c-0.4,0.5-0.9,0.5-1.1,0.4c0.1-0.1,0.2-0.4,0.3-0.5c-0.7,0.4-1.2,1.8-1.4,1.9l0.7-0.6c-0.3,0.5-0.7,1.1-1.1,1.6
						c-0.4,0.5-0.9,1-1.4,1.5l-0.7,0.8c-0.2,0.2-0.5,0.5-0.7,0.7c-0.4,0.5-0.9,1-1.2,1.5l0.3,0c-1.2,1.5-1.3,0.7-2.8,2.1l0-0.1
						c-0.2,0.4-0.6,0.8-1.1,1.1c0.3-0.5-1.1,0.1-0.7-0.5c-1.5,1.4-0.6,0.8-1.4,2.2L66,80.9c-0.3,0.5-0.2,0.7-1.1,1.2
						c0.6-0.7-0.8-0.2-0.2-1c-0.6,0-1,0.2-1.4,0.4c-0.4,0.2-0.7,0.4-0.9,0.6c-0.5,0.4-1,0.6-1.6,0.3c-0.6,1.3,1.9-0.1,1.5,0.3
						c0.6,0.2-0.5,1-1.2,1.1c-0.7,0.2-1.5-0.9-3.1-0.5c0.2,0,0.2-0.1,0.3-0.2c-0.7-0.1-1.1,0.7-2,0.4c-0.3,0.7-1,0.1-1,0.9l1.5-0.4
						c-0.8,0.3-1.5,1.4-3.1,1.2c0.1-0.2,0.5-0.5,0.8-0.6c-0.5-0.2-0.8,0.3-1.3,0.1c0-0.8,1.9-0.4,2.7-1.2c-0.5-0.3-1.7,0.8-1.3-0.1
						C54.4,83.9,54,84,53.5,84c-0.5,0-1-0.1-1.6,0.3l0-0.5c-0.2,0.1-0.5,0.3-0.9,0.3l0.6-0.6c-0.9,0.6-1.8-0.3-2.6-0.1
						c0.9,0,1,0.2,1,0.4c0,0.2-0.2,0.4,0.2,0.6C48,84.9,49,83,46.5,83.1c0.3,0,1.3,0.4,0.7,0.6c-0.5-0.1-1.1-0.4-1.3-0.7
						c-1.7-0.2,0.2,0.5-0.6,0.7c-0.5-0.7-0.9,0.1-1.6,0.2l0.1-0.5c-0.9-0.3-1.1-0.1-1.2,0.1c-0.2,0.2-0.3,0.4-1.1,0l0.9-0.5L41.3,83
						l0.3-0.5c-1,0.1-1.3,0-2.2-0.5c0.1,0.4-0.4,0.8-1.2,0.5c-0.5-0.5,0.5-0.3-0.7-0.7c0.4-0.2,0.8-0.4,1.1,0.2
						c0.1-0.1,0.4-0.2,0.5-0.3c-0.5-0.5-1.4-0.6-1.8-0.7c0.2,0.1,0.3,0.2,0.4,0.3c0,0-0.5,0-0.9,0c-0.5,0-0.9-0.1-0.9-0.1
						c-0.2-0.3,0.1-0.3,0.3-0.4c-0.3-0.1-0.7,0-1.1-0.2c0.3-0.3,0.4-0.7,1.2-0.5l-1.7-0.3c0-0.2-0.5-0.8-0.3-0.8
						c-0.6-0.7-2.3-0.5-3.1-1.4c-0.1,0-0.2,0-0.5-0.1c-0.4-0.4-0.8-0.8-1.2-1.2c-0.2-0.2-0.4-0.4-0.7-0.5c-0.2-0.2-0.5-0.3-0.9-0.5
						l-0.1-1c-0.9-0.6,0.2,1.4-1.3,0.4c-1.1-0.7,0.1-0.7-0.1-1.2c-0.7-0.2-1.9-0.5-2.3-1.8C24.4,71.8,24.6,72.1,24.8,72.3z M18,61.2
						c0.2,0.2,0.7,0.6,0.4,0.8C17.8,62,18,61.7,18,61.2z M16,41.1c0.1,0.2,0,0.5-0.3,0.8C15.7,41.7,15.8,41.4,16,41.1z M62.6,13.6
						C62.5,13.6,62.5,13.6,62.6,13.6C62,13.2,62.2,13.4,62.6,13.6z M63.7,14.3c0.2,0,0.2-0.1,0.1-0.2c-0.1,0.1-0.4,0-0.7-0.2
						C63.2,14.1,63.3,14.3,63.7,14.3z M59.1,87l-0.3-0.1C59.4,86.6,59.2,86.8,59.1,87z"/>
					<path d="M16.1,43.5c-0.1,0.1-0.2,0.1-0.3,0.1C15.9,43.7,16,43.7,16.1,43.5z"/>
					<path d="M31,77.5L31,77.5c0.1,0,0.1,0,0.1,0L31,77.5z"/>
					<path d="M44.1,16.3c-0.3,0-0.4-0.1-0.5-0.2C43.6,16.3,43.7,16.4,44.1,16.3z"/>
					<path d="M70.5,16.7l-0.8-0.3c0.4,0.2,0.4,0.4,0.6,0.5C70.3,16.8,70.3,16.6,70.5,16.7z"/>
					<path d="M74.5,23.5c0.1,0,0.2,0.2,0.3,0.2l0.1-0.2C74.6,23.2,74.2,23.1,74.5,23.5z"/>
					<path d="M70.3,18.5c-0.2,0.4,0.4,0.5,0.9,0.8c0,0-0.1,0-0.1-0.1C71.6,18.9,71,18.7,70.3,18.5z"/>
					<path d="M71.3,19.4c0.2,0.1,0.3,0.2,0.4,0.3C71.9,19.6,71.6,19.5,71.3,19.4z"/>
					<path d="M65.4,14.7c0.2,0.2,0.4-0.4,0.5-0.2C66.4,14.1,63.9,14.3,65.4,14.7z"/>
					<polygon points="70,19.9 70.1,19.3 69.6,19.5 					"/>
					<path d="M66.3,17.3l0.8,0.5c0-0.1,0.2-0.1,0.3,0C66.8,17.5,66.3,17.2,66.3,17.3z"/>
					<path d="M67.3,17.8c0.3,0.1,0.5,0.3,0.7,0.3C67.9,18,67.6,17.8,67.3,17.8z"/>
					<polygon points="68.9,19.4 68.7,19.1 68.2,18.8 					"/>
					<path d="M57,14.1l-1,0c-0.1,0.2,0.1,0.3,0.5,0.3C56.8,14.3,57.1,14.2,57,14.1z"/>
					<path d="M59.6,16.1c-0.2-0.2-0.2-0.3-0.3-0.5l-0.2,0.6L59.6,16.1z"/>
					<path d="M56.8,15.6c-0.1,0.2-1.5,0.3-0.3,0.4C56.7,15.8,57.7,15.9,56.8,15.6z"/>
					<polygon points="42.3,14.9 42.5,14.9 42.3,13.9 					"/>
					<path d="M31.7,22c1.1-0.4-0.1-0.7,0.9-0.9c0.1-0.3-0.8,0.2-0.7-0.1C31.4,21.5,31.1,21.6,31.7,22z"/>
					<path d="M31.9,21c0.1-0.1,0.1-0.2,0.2-0.3C32,20.8,31.9,20.9,31.9,21z"/>
					<polygon points="88.5,52.2 88.8,51.4 88.4,51.9 					"/>
					<path d="M87.8,50.7l0.7-0.2L87.9,50C87.9,50.2,88,50.5,87.8,50.7z"/>
					<path d="M18.6,59l-0.2,0c-0.1,0.1-0.1,0.3-0.1,0.6L18.6,59z"/>
					<polygon points="21.9,67.6 21.9,67.5 21.5,68 					"/>
					<path d="M27.4,73.2c-0.2-0.2-0.6-0.4-0.8-0.7C27.1,73,26.9,73.8,27.4,73.2z"/>
				</g>
			</g>
		</g>
	</g>
</g>
<text transform="matrix(1 0 0 1 0 115)" style="font-family:'Arial-BoldMT'; font-size:5px;">Created by Vignesh Raja</text>
<text transform="matrix(1 0 0 1 0 120)" style="font-family:'Arial-BoldMT'; font-size:5px;">from the Noun Project</text>
</svg>
