<?xml version="1.0" encoding="utf-8"?>
<!-- Generator: Adobe Illustrator 22.0.1, SVG Export Plug-In . SVG Version: 6.00 Build 0)  -->
<svg version="1.1" id="Layer_1" xmlns="http://www.w3.org/2000/svg" xmlns:xlink="http://www.w3.org/1999/xlink" x="0px" y="0px"
	 viewBox="0 0 100 103" style="enable-background:new 0 0 100 103;" xml:space="preserve">
<style type="text/css">
	.st0{fill:none;stroke:#000000;stroke-width:1.5;stroke-miterlimit:5;}
</style>
<defs>
	<style>
		.st0{
	stroke-dasharray: 500;
	stroke-dashoffset:0;
	animation: dash 2s linear forwards;

	
}
@keyframes dash{
	from{
		stroke-dashoffset:500;

	}
	to{
		stroke-dashoffset:0;
	}
}
	</style>
</defs>
<g>
<path class="st0" d="M74.2,60c0.3,0,0.6-0.1,0.7-0.3c0.2-0.2,0.3-0.5,0.3-0.8l-2.9-28.6c-0.1-0.5-0.5-0.9-1-0.9H28.1
	c-0.5,0-0.9,0.4-1,0.9l-2.9,28.6c0,0.3,0.1,0.6,0.3,0.8c0.2,0.2,0.5,0.3,0.7,0.3h16.5l-0.8,7.3h-4.1c-0.6,0-1,0.4-1,1s0.4,1,1,1
	h25.8c0.6,0,1-0.4,1-1s-0.4-1-1-1h-4.1L57.7,60L74.2,60L74.2,60z M56,50.4l-0.2-5.2h7.1l0.5,5.2H56z M63.5,52.4L64,58h-7.6l-0.3-5.6
	H63.5z M53.8,45.2l0.2,5.2h-8.3l0.3-5.2H53.8z M46.1,43.2l0.3-5.2h7.1l0.2,5.2C53.7,43.2,46.1,43.2,46.1,43.2z M64.9,45.2h6.9
	l0.5,5.2h-7L64.9,45.2z M71.6,43.2h-6.9l-0.5-5.2h6.8L71.6,43.2z M62.7,43.2h-7l-0.2-5.2h6.8L62.7,43.2z M55.4,36.1l-0.2-4.7h6.5
	l0.4,4.7H55.4z M53.4,36.1h-6.9l0.2-4.7h6.5L53.4,36.1z M44.5,36.1h-6.6l0.4-4.7h6.5L44.5,36.1z M44.4,38.1l-0.3,5.2h-6.9l0.4-5.2
	L44.4,38.1L44.4,38.1z M35.2,43.2h-7.4l0.5-5.2h7.3L35.2,43.2z M27.6,45.2H35l-0.4,5.2h-7.5L27.6,45.2z M37,45.2h7l-0.3,5.2h-7.2
	L37,45.2z M43.6,52.4L43.4,58h-7.4l0.5-5.6H43.6z M45.7,52.4h8.5l0.3,5.6h-9L45.7,52.4z M66,58l-0.5-5.6h7l0.6,5.6H66z M70.9,36.1
	h-6.8l-0.4-4.7h6.7L70.9,36.1z M36.2,31.3l-0.4,4.7h-7.3l0.5-4.7C29,31.3,36.2,31.3,36.2,31.3z M26.9,52.4h7.5L33.9,58h-7.6
	L26.9,52.4z M56.5,67.3H42.9l0.8-7.3h12L56.5,67.3z"/>
<path class="st0" d="M59.7,11.3c-0.5-0.1-1.1,0.2-1.2,0.7c-0.1,0.5,0.2,1.1,0.7,1.2C76.2,17.4,88,32.5,88,50
	c0,17.2-11.5,32.1-27.9,36.5l0.8-1.3c0.3-0.5,0.1-1.1-0.4-1.4c-0.5-0.3-1.1-0.1-1.4,0.4l-2,3.3c-0.3,0.5-0.1,1.1,0.4,1.4l3.3,2
	c0.2,0.1,0.3,0.1,0.5,0.1c0.3,0,0.7-0.2,0.9-0.5c0.3-0.5,0.1-1.1-0.4-1.4l-1.2-0.7C78,83.7,90,68,90,50C90,31.6,77.5,15.7,59.7,11.3
	z"/>
<path class="st0" d="M40.8,88.8c0.5,0,0.9-0.3,1-0.8c0.1-0.5-0.2-1.1-0.7-1.2c-17-4.2-28.8-19.3-28.8-36.8c0-17.2,11.4-32,27.9-36.5
	l-0.6,1.3c-0.2,0.5,0,1.1,0.5,1.3c0.1,0.1,0.3,0.1,0.4,0.1c0.4,0,0.7-0.2,0.9-0.6l1.7-3.5c0.2-0.5,0-1.1-0.5-1.3L39,9.1
	c-0.5-0.2-1.1,0-1.3,0.5c-0.2,0.5,0,1.1,0.5,1.3l1.3,0.6C22.2,16.3,10.2,32,10.2,50c0,18.4,12.5,34.3,30.4,38.7
	C40.7,88.7,40.8,88.8,40.8,88.8z"/>
</g>
</svg>
