<?xml version="1.0" encoding="utf-8"?>
<!-- Generator: Adobe Illustrator 22.0.1, SVG Export Plug-In . SVG Version: 6.00 Build 0)  -->
<svg version="1.1" id="Layer_1" xmlns="http://www.w3.org/2000/svg" xmlns:xlink="http://www.w3.org/1999/xlink" x="0px" y="0px"
	 viewBox="0 0 100 103" style="enable-background:new 0 0 100 103;" xml:space="preserve">
<style type="text/css">
	.st0{fill:none;stroke:#000000;stroke-width:1.5;stroke-miterlimit:5;}
</style>
<defs>
	<style>
		.st0{
	stroke-dasharray: 800;
	stroke-dashoffset:0;
	animation: dash 2s linear forwards;

	
}
@keyframes dash{
	from{
		stroke-dashoffset:800;

	}
	to{
		stroke-dashoffset:0;
	}
}
	</style>
</defs>
<g>
	<path class="st0" d="M96.5,72C96.5,72,96.5,71.9,96.5,72l0-57.6c0,0,0,0,0,0c0-4.1-3.4-7.5-7.5-7.5c0,0,0,0,0,0H51c0,0,0,0,0,0H6.5
		c-0.6,0-1,0.4-1,1c0,0,0,0,0,0v57.5c0,0,0,0,0,0c0,4.1,3.4,7.5,7.5,7.5l0,0l0,0h24.5c0.3,0.5,0.6,1,1,1.4c0.3,0.4,0.7,0.8,0.8,1.1
		c0.1,0.3,0.1,0.9,0,1.4c0,0.1,0,0.3,0,0.4l-7.1,6c0,0,0,0,0,0c0,0-0.1,0.1-0.1,0.1c0,0,0,0-0.1,0.1c0,0,0,0.1-0.1,0.1
		c0,0,0,0.1,0,0.1c0,0,0,0.1,0,0.1s0,0.1,0,0.1c0,0,0,0,0,0c0,0,0,0,0,0.1c0,0,0,0.1,0,0.1c0,0,0,0.1,0,0.1c0,0,0,0.1,0,0.1
		c0,0,0,0.1,0,0.1c0,0,0,0.1,0,0.1c0,0,0,0.1,0,0.1c0,0,0,0.1,0,0.1c0,0,0,0.1,0.1,0.1c0,0,0,0,0,0c0,0,0,0,0,0c0,0,0.1,0.1,0.1,0.1
		c0,0,0,0,0.1,0c0,0,0.1,0.1,0.1,0.1c0,0,0,0,0.1,0c0,0,0.1,0,0.1,0c0,0,0,0,0.1,0c0,0,0,0,0,0l5.8,1.2l0.2,5.9c0,0,0,0,0,0
		c0,0,0,0.1,0,0.1c0,0,0,0.1,0,0.1c0,0,0,0.1,0,0.1c0,0,0,0.1,0,0.1c0,0,0,0.1,0,0.1c0,0,0,0.1,0.1,0.1c0,0,0,0,0,0c0,0,0,0,0,0
		c0,0,0.1,0.1,0.1,0.1c0,0,0,0,0.1,0.1c0,0,0.1,0,0.1,0.1c0,0,0,0,0.1,0c0,0,0.1,0,0.1,0c0,0,0,0,0.1,0c0.1,0,0.1,0,0.2,0
		c0,0,0,0,0,0c0,0,0,0,0,0c0,0,0,0,0,0c0,0,0,0,0,0c0,0,0.1,0,0.1,0c0,0,0,0,0.1,0c0,0,0.1,0,0.1,0c0,0,0,0,0.1,0c0,0,0.1,0,0.1-0.1
		c0,0,0,0,0.1,0c0,0,0,0,0,0L50.8,84c0.1,0,0.2,0,0.2,0s0.2,0,0.2,0l10.5,8.9c0,0,0,0,0,0c0,0,0,0,0.1,0c0,0,0.1,0,0.1,0.1
		c0,0,0,0,0.1,0c0,0,0.1,0,0.1,0c0,0,0,0,0.1,0c0,0,0.1,0,0.1,0c0,0,0,0,0,0c0,0,0,0,0,0c0,0,0,0,0,0c0,0,0,0,0,0c0.1,0,0.1,0,0.2,0
		c0,0,0,0,0.1,0c0,0,0.1,0,0.1,0c0,0,0,0,0.1,0c0,0,0.1,0,0.1-0.1c0,0,0,0,0.1-0.1c0,0,0.1-0.1,0.1-0.1c0,0,0,0,0,0c0,0,0,0,0,0
		c0,0,0-0.1,0.1-0.1c0,0,0-0.1,0-0.1c0,0,0-0.1,0-0.1c0,0,0-0.1,0-0.1c0,0,0-0.1,0-0.1c0,0,0-0.1,0-0.1c0,0,0,0,0,0l0.2-5.9l5.8-1.2
		c0,0,0,0,0,0c0,0,0,0,0.1,0c0,0,0.1,0,0.1,0c0,0,0,0,0.1,0c0,0,0.1,0,0.1-0.1c0,0,0,0,0.1-0.1c0,0,0.1-0.1,0.1-0.1c0,0,0,0,0,0
		c0,0,0,0,0,0c0,0,0-0.1,0.1-0.1c0,0,0-0.1,0-0.1c0,0,0-0.1,0-0.1c0,0,0-0.1,0-0.1c0,0,0-0.1,0-0.1c0,0,0-0.1,0-0.1c0,0,0-0.1,0-0.1
		c0,0,0-0.1,0-0.1c0,0,0,0,0-0.1c0,0,0,0,0,0c0,0,0-0.1,0-0.1c0,0,0-0.1,0-0.1c0,0,0-0.1,0-0.1c0,0,0-0.1-0.1-0.1s0,0-0.1-0.1
		c0,0,0-0.1-0.1-0.1c0,0,0,0,0,0l-7.1-6c0-0.1,0-0.3,0-0.4c0-0.5-0.1-1.1,0-1.4c0.1-0.3,0.4-0.7,0.8-1.1c0.4-0.4,0.7-0.9,1-1.4h21.2
		c0,0,0,0,0,0c0,0,0,0,0,0h9.8c0,0,0,0,0,0c0.1,0,0.1,0,0.2,0c0.4-0.1,0.7-0.4,0.8-0.8c0,0,0,0,0,0C96.5,72.1,96.5,72,96.5,72z
		 M94.5,70.9h-7.7c0.5-4,3.7-7.3,7.7-7.7V70.9z M7.5,8.9h7.7c-0.5,4-3.7,7.3-7.7,7.7V8.9z M7.5,65.4C7.5,65.4,7.5,65.4,7.5,65.4
		l0-46.8c5.1-0.5,9.3-4.6,9.7-9.7H51c0,0,0,0,0,0h38c0,0,0,0,0,0c3,0,5.5,2.5,5.5,5.5c0,0,0,0,0,0v46.8c-5.1,0.5-9.3,4.6-9.7,9.7
		h-20c-0.2-0.8-0.7-1.4-1.2-2c-0.3-0.4-0.7-0.8-0.8-1.1c-0.1-0.3-0.1-0.9,0-1.4c0.1-0.9,0.1-2-0.5-2.9c-0.6-0.9-1.7-1.1-2.6-1.4
		c-0.5-0.1-1.1-0.3-1.3-0.5c-0.3-0.2-0.6-0.7-0.9-1.1c-0.5-0.8-1.1-1.7-2.1-2.1c-0.2-0.1-0.5-0.1-0.8-0.1c-0.7,0-1.4,0.3-2.1,0.5
		c-0.5,0.2-1,0.4-1.4,0.4s-0.9-0.2-1.4-0.4c-0.7-0.3-1.4-0.5-2.1-0.5c-0.3,0-0.5,0-0.8,0.1c-1,0.3-1.6,1.3-2.1,2.1
		c-0.3,0.4-0.6,0.9-0.9,1.1c-0.3,0.2-0.8,0.3-1.3,0.5c-0.9,0.2-2,0.5-2.6,1.4c-0.6,0.9-0.6,1.9-0.5,2.9c0,0.5,0.1,1.1,0,1.4
		c-0.1,0.3-0.4,0.7-0.8,1.1c-0.5,0.6-1,1.2-1.2,2H13l0,0l0,0C10,70.9,7.5,68.5,7.5,65.4z M40.4,85.4C40.4,85.3,40.4,85.3,40.4,85.4
		c0-0.1,0-0.1,0-0.2c0,0,0-0.1,0-0.1c0,0,0-0.1,0-0.1c0,0,0-0.1-0.1-0.1c0,0,0,0,0-0.1c0,0,0-0.1-0.1-0.1c0,0,0,0,0-0.1
		c0,0-0.1-0.1-0.1-0.1c0,0,0,0,0,0c0,0-0.1,0-0.1-0.1c0,0,0,0,0,0c0,0-0.1,0-0.1,0c0,0,0,0,0,0l0,0c0,0,0,0,0,0L35,83.5l4.6-3.9
		c0,0.1,0.1,0.1,0.1,0.2c0.6,0.9,1.7,1.1,2.6,1.4c0.5,0.1,1.1,0.3,1.3,0.5c0.3,0.2,0.6,0.7,0.9,1.1c0.5,0.8,1.1,1.7,2.1,2.1L40.5,90
		L40.4,85.4z M62.2,79.8c0-0.1,0.1-0.1,0.1-0.2l4.6,3.9l-4.6,0.9c0,0-0.1,0-0.1,0c0,0,0,0-0.1,0c0,0-0.1,0-0.1,0.1c0,0,0,0,0,0
		c0,0-0.1,0.1-0.1,0.1c0,0,0,0,0,0c0,0-0.1,0.1-0.1,0.1c0,0,0,0,0,0c0,0,0,0.1-0.1,0.1c0,0,0,0,0,0.1c0,0,0,0.1,0,0.1c0,0,0,0,0,0.1
		c0,0,0,0.1,0,0.1c0,0,0,0,0,0.1L61.5,90l-6.2-5.2c1-0.3,1.6-1.3,2.1-2.1c0.3-0.4,0.6-0.9,0.9-1.1c0.3-0.2,0.8-0.3,1.3-0.5
		C60.5,80.9,61.6,80.6,62.2,79.8z M62,73c-0.5,0.5-0.9,1.1-1.1,1.8c-0.2,0.7-0.2,1.5-0.1,2.2c0,0.6,0.1,1.3-0.1,1.6
		c-0.2,0.3-0.9,0.5-1.5,0.6c-0.7,0.2-1.4,0.4-2,0.8c-0.6,0.4-1,1.1-1.4,1.7c-0.3,0.6-0.7,1.1-1.1,1.2c0,0-0.1,0-0.2,0
		c-0.3,0-0.9-0.2-1.3-0.4c-0.4-0.1-0.7-0.3-1.1-0.4c0,0,0,0,0,0C51.7,82,51.3,82,51,82s-0.7,0.1-1,0.1c0,0,0,0,0,0
		c-0.4,0.1-0.8,0.3-1.1,0.4c-0.5,0.2-1,0.4-1.3,0.4c-0.1,0-0.1,0-0.2,0c-0.4-0.1-0.7-0.7-1.1-1.2c-0.4-0.6-0.8-1.2-1.4-1.7
		c-0.6-0.4-1.3-0.6-2-0.8c-0.6-0.2-1.3-0.3-1.5-0.6c-0.2-0.3-0.2-1-0.1-1.6c0-0.7,0.1-1.5-0.1-2.2c-0.2-0.7-0.7-1.2-1.1-1.8
		c-0.4-0.5-0.9-1-0.9-1.4c0-0.4,0.4-0.9,0.9-1.4c0.5-0.5,0.9-1.1,1.1-1.8c0.2-0.7,0.2-1.5,0.1-2.2c0-0.6-0.1-1.3,0.1-1.6
		c0.2-0.3,0.9-0.5,1.5-0.6c0.7-0.2,1.4-0.4,2-0.8c0.6-0.4,1-1.1,1.4-1.7c0.3-0.6,0.7-1.1,1.1-1.2c0,0,0.1,0,0.2,0
		c0.3,0,0.9,0.2,1.3,0.4c0.7,0.3,1.4,0.6,2.2,0.6s1.5-0.3,2.2-0.6c0.5-0.2,1-0.4,1.3-0.4c0.1,0,0.1,0,0.2,0c0.4,0.1,0.7,0.7,1.1,1.2
		c0.4,0.6,0.8,1.2,1.4,1.7c0.6,0.4,1.3,0.6,2,0.8c0.6,0.2,1.3,0.3,1.5,0.6c0.2,0.3,0.2,1,0.1,1.6c0,0.7-0.1,1.5,0.1,2.2
		c0.2,0.7,0.7,1.2,1.1,1.8c0.4,0.5,0.9,1,0.9,1.4C62.9,72,62.4,72.5,62,73z"/>
	<path class="st0" d="M16.2,35.9h69.6c0.6,0,1-0.4,1-1s-0.4-1-1-1H16.2c-0.6,0-1,0.4-1,1S15.6,35.9,16.2,35.9z"/>
	<path class="st0" d="M16.2,46.2h69.6c0.6,0,1-0.4,1-1c0-0.6-0.4-1-1-1H16.2c-0.6,0-1,0.4-1,1C15.2,45.7,15.6,46.2,16.2,46.2z"/>
	<path class="st0" d="M51,62.4c-5.1,0-9.2,4.1-9.2,9.2s4.1,9.2,9.2,9.2c5.1,0,9.2-4.1,9.2-9.2S56.1,62.4,51,62.4z M51,78.8
		c-4,0-7.2-3.2-7.2-7.2s3.2-7.2,7.2-7.2c4,0,7.2,3.2,7.2,7.2S55,78.8,51,78.8z"/>
</g>

</svg>
