<?xml version="1.0" encoding="utf-8"?>
<!-- Generator: Adobe Illustrator 22.0.1, SVG Export Plug-In . SVG Version: 6.00 Build 0)  -->
<svg version="1.1" id="Layer_1" xmlns="http://www.w3.org/2000/svg" xmlns:xlink="http://www.w3.org/1999/xlink" x="0px" y="0px"
	 viewBox="0 0 52 58.3" style="enable-background:new 0 0 52 58.3;" xml:space="preserve">
<style type="text/css">
	.st0{fill:none;stroke:#000000;stroke-miterlimit:5;}
</style>
<defs>
	<style>
		.st0{
	stroke-dasharray: 400;
	stroke-dashoffset:0;
	animation: dash 4s linear forwards;

	
}
@keyframes dash{
	from{
		stroke-dashoffset:400;

	}
	to{
		stroke-dashoffset:0;
	}
}
	</style>
</defs>
<g>
	<g>
		<g>
			<path class="st0" d="M37.7,17.6c-0.3,0-0.5-0.2-0.5-0.5c0-5.1-3.4-9.7-8.1-11.1c-0.3-0.1-0.4-0.4-0.3-0.6C28.8,5.1,29.1,5,29.4,5
				c5.1,1.5,8.9,6.5,8.9,12C38.2,17.4,38,17.6,37.7,17.6z"/>
		</g>
		<g>
			<path class="st0" d="M14.3,17.6c-0.3,0-0.5-0.2-0.5-0.5c0-5.5,3.7-10.6,8.9-12c0.3-0.1,0.5,0.1,0.6,0.3c0.1,0.3-0.1,0.5-0.3,0.6
				c-4.7,1.3-8.1,6-8.1,11.1C14.8,17.4,14.6,17.6,14.3,17.6z"/>
		</g>
		<g>
			<path class="st0" d="M37.5,21.5h-23c-1.4,0-2.5-1.1-2.5-2.5c0-1.4,1.1-2.5,2.5-2.5h23c1.4,0,2.5,1.1,2.5,2.5
				C40,20.4,38.9,21.5,37.5,21.5z M14.5,17.6c-0.8,0-1.5,0.7-1.5,1.5s0.7,1.5,1.5,1.5h23c0.8,0,1.5-0.7,1.5-1.5s-0.7-1.5-1.5-1.5
				H14.5z"/>
		</g>
		<g>
			<path class="st0" d="M26.4,13.1h-0.7c-1.4,0-2.6-1-2.7-2.4l-0.6-5.1C22.2,4.8,22.4,4,23,3.4c0.5-0.6,1.3-0.9,2.1-0.9h2
				c0.8,0,1.5,0.3,2.1,0.9c0.5,0.6,0.8,1.4,0.7,2.1l-0.6,5.1C28.9,12,27.7,13.1,26.4,13.1z M25,3.5c-0.5,0-1,0.2-1.3,0.6
				c-0.3,0.4-0.5,0.9-0.4,1.4l0.6,5.1c0.1,0.9,0.9,1.5,1.7,1.5h0.7c0.9,0,1.6-0.7,1.7-1.5l0.6-5.1c0.1-0.5-0.1-1-0.4-1.4
				C28,3.7,27.5,3.5,27,3.5H25z"/>
		</g>
	</g>
	<g>
		<path class="st0" d="M26,34.8c-5.4,0-10-6.2-10-13.5c0-0.3,0.2-0.5,0.5-0.5S17,21,17,21.3c0,6.8,4.1,12.5,9,12.5
			c3.5,0,9-5.4,9-12.5c0-0.3,0.2-0.5,0.5-0.5S36,21,36,21.3C36,28.5,30.5,34.8,26,34.8z"/>
	</g>
	<g>
		<path class="st0" d="M49,49.5H3c-0.3,0-0.5-0.2-0.5-0.5c0-5.8,4.7-10.5,10.4-10.5h3.8c1.6,0,3.1,0.6,4.3,1.8
			c1.5,1.4,3.2,2.2,5,2.2c1.4,0,3.1-0.8,4.6-2.2c1.2-1.1,2.7-1.8,4.3-1.8h4.2c5.8,0,10.4,4.7,10.4,10.4V49
			C49.5,49.3,49.3,49.5,49,49.5z M3.5,48.5h45c-0.2-5-4.4-9-9.4-9h-4.2c-1.3,0-2.6,0.5-3.6,1.5c-1.7,1.6-3.6,2.5-5.3,2.5
			c-2,0-4-0.9-5.7-2.5c-1-1-2.3-1.5-3.6-1.5h-3.8C7.9,39.5,3.7,43.5,3.5,48.5z"/>
	</g>
</g>

</svg>
