
<svg version="1.1" id="Layer_1" xmlns="http://www.w3.org/2000/svg" xmlns:xlink="http://www.w3.org/1999/xlink" x="0px" y="0px"
	 viewBox="0 0 100 102" style="enable-background:new 0 0 100 102;" xml:space="preserve">
<style type="text/css">
	.st0{fill:none;stroke:#000000;stroke-width:1.8;stroke-miterlimit:5;}
</style>
<defs>
	<style>
		.st0{
	stroke-dasharray: 800;
	stroke-dashoffset:0;
	animation: dash 2s linear forwards;
	
}
@keyframes dash{
	from{
		stroke-dashoffset:800;

	}
	to{
		stroke-dashoffset:0;
	}
}
	</style>
</defs>
<g>
	<path  class="st0" d="M85.1,37.3c0-4.1-3.4-7.5-7.5-7.5c-0.6,0-1.2,0.1-1.7,0.2s-0.8,0.5-0.8,1v6.8h-19v2h19v33.7
		c0.5-0.3,1.1-0.5,1.7-0.6c0.3,0,0.6-0.1,0.8-0.1c3,0,5.5,2.5,5.5,5.5s-2.5,5.5-5.5,5.5l0,0h-59l0,0c-3,0-5.5-2.5-5.5-5.5
		s2.5-5.5,5.5-5.5c0.3,0,0.7,0,1,0.1c0.5,0.1,1,0.3,1.5,0.6V39.8h19v-2h-19V31c0-0.5-0.3-0.9-0.8-1c-0.6-0.1-1.1-0.2-1.7-0.2
		c-4.1,0-7.5,3.4-7.5,7.5v40.2c0,0.1,0,0.1,0,0.2c0,0.2,0,0.4,0,0.7c0,4,3.1,7.2,7,7.5l0,0h60l0,0c3.9-0.3,7-3.5,7-7.5
		c0-0.2,0-0.4,0-0.7c0-0.1,0-0.1,0-0.2V37.3z M13.1,37.3c0-3,2.5-5.5,5.5-5.5c0.2,0,0.3,0,0.5,0v39c-0.2,0-0.3,0-0.5,0
		c-2.2,0-4.1,0.9-5.5,2.4V37.3z M77.6,70.8c-0.2,0-0.3,0-0.5,0v-39c0.2,0,0.3,0,0.5,0c3,0,5.5,2.5,5.5,5.5v35.9
		C81.8,71.8,79.8,70.8,77.6,70.8z"/>
	<path class="st0" d="M44.8,34.8l-2,9h-4.6v2h4.2l-5.6,24.8l2,0.4l5.7-25.2h2.8v2h2v-2H52L57.8,71l1.9-0.4L54,45.8
		h5.2v-2h-5.7l-2.1-9c1.6-1.1,2.7-2.9,2.7-5c0-3-2.2-5.4-5-5.9v-4.1h-2v4.1c-2.8,0.5-5,2.9-5,5.9C42.1,31.9,43.2,33.8,44.8,34.8z
		 M51.4,43.8h-2.3v-2h-2v2h-2.3l1.9-8.2c0.5,0.1,1,0.2,1.5,0.2s1-0.1,1.4-0.2L51.4,43.8z M48.1,25.8c2.2,0,4,1.8,4,4s-1.8,4-4,4
		s-4-1.8-4-4S45.9,25.8,48.1,25.8z"/>
</g>

</svg>
