<?xml version="1.0" encoding="utf-8"?>
<!-- Generator: Adobe Illustrator 22.0.1, SVG Export Plug-In . SVG Version: 6.00 Build 0)  -->
<svg version="1.1" id="Layer_1" xmlns="http://www.w3.org/2000/svg" xmlns:xlink="http://www.w3.org/1999/xlink" x="0px" y="0px"
	 viewBox="0 0 100 109.2" style="enable-background:new 0 0 100 109.2;" xml:space="preserve">
<g>
	<path d="M85.5,53.7c0.1-1.3,0-3.7-1.9-4.8L27.1,14.6c0-0.6-0.1-1.2-0.3-1.7c-0.6-2.6-2.2-4.8-4.5-6.2c-4.7-2.8-10.8-1.3-13.7,3.4
		C5.8,14.8,7.3,21,12,23.8c1.5,0.9,3.1,1.3,4.7,1.4l34.1,56.4c1.2,1.9,3.5,2,4.8,1.9l6.6,6.9c0.3,0.3,0.7,0.5,1.1,0.5
		c0.3,0,0.6-0.1,0.9-0.3c0.6-0.5,0.8-1.3,0.4-2L31.7,34.2l4.4-4.4l54.3,32.9c0.2,0.1,0.5,0.2,0.8,0.2c0.5,0,0.9-0.2,1.2-0.6
		c0.5-0.6,0.4-1.5-0.1-2L85.5,53.7z M24.9,22.9l6.4,3.9l-2.5,2.5L24.9,22.9z M11.2,11.7c1.3-2.2,3.6-3.4,6-3.4c1.2,0,2.5,0.3,3.6,1
		c1.6,1,2.7,2.5,3.2,4.3s0.2,3.7-0.8,5.3c-2,3.3-6.3,4.3-9.6,2.4S9.2,15,11.2,11.7z M55.9,80.4c-0.7,0.2-2.2,0.2-2.5-0.4L20,24.8
		c0.7-0.2,1.4-0.5,2.1-0.9l34.2,56.4C56.1,80.4,56,80.4,55.9,80.4z M30.7,32.4l-0.8-1.3l3.2-3.2l1.3,0.8L30.7,32.4z M82.4,53.9
		c0,0.1,0,0.2,0,0.3L25.9,20c0.4-0.7,0.6-1.4,0.8-2.1L82,51.4C82.6,51.7,82.6,53.1,82.4,53.9z"/>
</g>
<text transform="matrix(1 0 0 1 0 115)" style="font-family:'Arial-BoldMT'; font-size:5px;">Created by Yusuf</text>
<text transform="matrix(1 0 0 1 0 120)" style="font-family:'Arial-BoldMT'; font-size:5px;">from the Noun Project</text>
</svg>
