<?xml version="1.0" encoding="utf-8"?>
<!-- Generator: Adobe Illustrator 22.0.1, SVG Export Plug-In . SVG Version: 6.00 Build 0)  -->
<svg version="1.1" id="Layer_1" xmlns="http://www.w3.org/2000/svg" xmlns:xlink="http://www.w3.org/1999/xlink" x="0px" y="0px"
	 viewBox="0 0 100 110" style="enable-background:new 0 0 100 110;" xml:space="preserve">
<style type="text/css">
	.st0{fill:#87D6F8;}
</style>
<path class="st0" d="M15.5,47.4c-0.1-0.6,0.2-1.2,0.7-1.6l40.6-29.2c0.5-0.4,1.2-0.4,1.7-0.2c0.6,0.3,1,0.8,1,1.4l4.7,49.3
	c0.1,0.6-0.2,1.2-0.7,1.6c-0.5,0.4-1.2,0.4-1.7,0.2L16.5,48.8c-0.3-0.1-0.5-0.3-0.7-0.6C15.6,48,15.5,47.7,15.5,47.4z M56.3,21.2
	L20.7,46.9l39.8,17.7L56.3,21.2z"/>
<text transform="matrix(1 0 0 1 0 115)" style="font-family:'Arial-BoldMT'; font-size:5px;">Created by Dara Ullrich</text>
<text transform="matrix(1 0 0 1 0 120)" style="font-family:'Arial-BoldMT'; font-size:5px;">from the Noun Project</text>
</svg>
