<?xml version="1.0" encoding="utf-8"?>
<!-- Generator: Adobe Illustrator 22.0.1, SVG Export Plug-In . SVG Version: 6.00 Build 0)  -->
<svg version="1.1" id="Layer_1" xmlns="http://www.w3.org/2000/svg" xmlns:xlink="http://www.w3.org/1999/xlink" x="0px" y="0px"
	 viewBox="0 0 100 100" style="enable-background:new 0 0 100 100;" xml:space="preserve">
<g>
	<path d="M79.5,72.4c13.8-14.9,13.5-38.3-1-52.8c-7.2-7.2-16.8-11.2-27-11.2c-9.7,0-18.8,3.6-25.9,10.1l-3.2-3.2
		c-0.9-0.9-2.4-0.9-3.3,0l-8,8c-0.9,0.9-0.9,2.4,0,3.3L71.4,87c0.4,0.4,1,0.7,1.7,0.7c0.6,0,1.2-0.2,1.7-0.7l8-8
		c0.4-0.4,0.7-1,0.7-1.7s-0.2-1.2-0.7-1.7L79.5,72.4z M73,84.4l-2-2.1l0.9-0.9c0.4-0.4,0.4-1,0-1.4s-1-0.4-1.4,0l-0.9,0.9l-2.4-2.4
		l2.8-2.8c0.4-0.4,0.4-1,0-1.4s-1-0.4-1.4,0l-2.8,2.8l-2.4-2.4l0.9-0.9c0.4-0.4,0.4-1,0-1.4s-1-0.4-1.4,0L62,73.3l-2.4-2.4l2.8-2.8
		c0.4-0.4,0.4-1,0-1.4s-1-0.4-1.4,0l-3,2.7L55.6,67l0.9-0.9c0.4-0.4,0.4-1,0-1.4s-1-0.4-1.4,0l-0.9,0.9l-2.4-2.4l2.8-2.8
		c0.4-0.4,0.4-1,0-1.4s-1-0.4-1.4,0l-2.8,2.8L48,59.4l0.9-0.9c0.4-0.4,0.4-1,0-1.4s-1-0.4-1.4,0L46.6,58l-2.4-2.4l2.8-2.8
		c0.4-0.4,0.4-1,0-1.4s-1-0.4-1.4,0l-3,2.6l-2.4-2.4l0.9-0.9c0.4-0.4,0.4-1,0-1.4s-1-0.4-1.4,0l-0.9,0.9l-2.4-2.4l2.8-2.8
		c0.4-0.4,0.4-1,0-1.4s-1-0.4-1.4,0L35,46.3l-2.4-2.4l0.9-0.9c0.4-0.4,0.4-1,0-1.4s-1-0.4-1.4,0l-0.9,0.9L28.7,40l2.8-2.8
		c0.4-0.4,0.4-1,0-1.4s-1-0.4-1.4,0l-2.8,2.8l-2.4-2.4l0.9-0.9c0.4-0.4,0.4-1,0-1.4s-1-0.4-1.4,0l-0.9,0.9L21,32.3l2.8-2.8
		c0.4-0.4,0.4-1,0-1.4s-1-0.4-1.4,0l-2.8,2.8l-2.4-2.4l0.9-0.9c0.4-0.4,0.4-1,0-1.4s-1-0.4-1.4,0l-0.9,0.9L13.6,25l7.1-7.1l3.8,3.8
		c0.6,0.6,1.6,0.6,2.1,0c6.6-6.6,15.4-10.3,24.8-10.3s18.2,3.7,24.8,10.3c13.7,13.7,13.7,36,0,49.7c-0.6,0.6-0.6,1.5,0,2.1l3.8,3.8
		L73,84.4z"/>
	<path d="M70.1,28c-5-5-11.5-7.7-18.6-7.7c-7,0-13.6,2.7-18.6,7.7c-0.6,0.6-0.6,1.5,0,2.1l35,35c0.3,0.3,0.7,0.4,1.1,0.4
		s0.8-0.1,1.1-0.4c5-5,7.7-11.5,7.7-18.6S75,32.9,70.1,28z M69,61.9L36.2,29.1c4.2-3.7,9.6-5.8,15.3-5.8c6.2,0,12,2.4,16.4,6.8
		s6.8,10.2,6.8,16.4C74.8,52.2,72.7,57.6,69,61.9z"/>
</g>
<text transform="matrix(1 0 0 1 0 115)" style="font-family:'Arial-BoldMT'; font-size:5px;">Created by Yusuf</text>
<text transform="matrix(1 0 0 1 0 120)" style="font-family:'Arial-BoldMT'; font-size:5px;">from the Noun Project</text>
</svg>
